# Blender v3.1.2 OBJ File: 'ExamMap.blend'
# www.blender.org
mtllib LevelRoof.mtl
o LevelRoof_Cube.001
v -12.000002 7.000000 -1.000000
v -12.000002 5.000000 -1.000000
v -12.000002 7.000000 1.000000
v -12.000002 5.000000 1.000000
v -22.000002 7.000000 -1.000000
v -22.000002 5.000000 -1.000000
v -22.000002 7.000000 1.000000
v -22.000002 5.000000 1.000000
v -14.000000 5.000000 -1.000000
v -14.000000 7.000000 1.000000
v -14.000000 5.000000 1.000000
v -14.000000 7.000000 -1.000000
v -12.000002 15.000000 -1.000000
v -12.000002 15.000000 1.000000
v -14.000000 15.000000 -1.000000
v -14.000000 15.000000 1.000000
v -14.000000 13.000000 -1.000000
v -12.000002 13.000000 -1.000000
v -14.000000 13.000000 1.000000
v -12.000002 13.000000 1.000000
v 15.999999 15.000000 -1.000000
v 15.999999 15.000000 1.000000
v 15.999999 13.000000 1.000000
v 15.999999 13.000000 -1.000000
v 13.999999 13.000000 1.000000
v 13.999999 15.000000 1.000000
v 13.999999 13.000000 -1.000000
v 13.999999 15.000000 -1.000000
v 15.999999 5.000000 -1.000000
v 15.999999 5.000000 1.000000
v 13.999999 5.000000 1.000000
v 13.999999 5.000000 -1.000000
v 15.999999 7.000000 1.000000
v 15.999999 7.000000 -1.000000
v 13.999999 7.000000 -1.000000
v 13.999999 7.000000 1.000000
v 21.999998 5.000000 -1.000000
v 21.999998 5.000000 1.000000
v 21.999998 7.000000 1.000000
v 21.999998 7.000000 -1.000000
v -20.000002 5.000000 -1.000000
v -20.000002 7.000000 1.000000
v -20.000002 5.000000 1.000000
v -20.000002 7.000000 -1.000000
v -18.000002 5.000000 1.000000
v -18.000002 7.000000 -1.000000
v -18.000002 5.000000 -1.000000
v -18.000002 7.000000 1.000000
v -16.000002 5.000000 1.000000
v -16.000002 7.000000 -1.000000
v -16.000002 5.000000 -1.000000
v -16.000002 7.000000 1.000000
v -12.000002 11.000000 -1.000000
v -12.000002 9.000000 -1.000000
v -14.000000 9.000000 -1.000000
v -14.000000 11.000000 -1.000000
v -14.000000 9.000000 1.000000
v -14.000000 11.000000 1.000000
v -12.000002 9.000000 1.000000
v -12.000002 11.000000 1.000000
v 11.999999 15.000000 1.000000
v 9.999999 15.000000 1.000000
v 8.000000 15.000000 1.000000
v 6.000000 15.000000 1.000000
v 4.000000 15.000000 1.000000
v 1.999999 15.000000 1.000000
v -0.000001 15.000000 1.000000
v -2.000001 15.000000 1.000000
v -4.000001 15.000000 1.000000
v -6.000001 15.000000 1.000000
v -8.000002 15.000000 1.000000
v -10.000002 15.000000 1.000000
v 11.999999 15.000000 -1.000000
v 9.999999 15.000000 -1.000000
v 8.000000 15.000000 -1.000000
v 6.000000 15.000000 -1.000000
v 4.000000 15.000000 -1.000000
v 1.999999 15.000000 -1.000000
v -0.000001 15.000000 -1.000000
v -2.000001 15.000000 -1.000000
v -4.000001 15.000000 -1.000000
v -6.000001 15.000000 -1.000000
v -8.000002 15.000000 -1.000000
v -10.000002 15.000000 -1.000000
v -10.000002 13.000000 1.000000
v -8.000002 13.000000 1.000000
v -6.000002 13.000000 1.000000
v -4.000002 13.000000 1.000000
v -2.000002 13.000000 1.000000
v -0.000002 13.000000 1.000000
v 1.999999 13.000000 1.000000
v 3.999999 13.000000 1.000000
v 5.999999 13.000000 1.000000
v 7.999999 13.000000 1.000000
v 9.999999 13.000000 1.000000
v 11.999999 13.000000 1.000000
v -10.000002 13.000000 -1.000000
v -8.000002 13.000000 -1.000000
v -6.000002 13.000000 -1.000000
v -4.000002 13.000000 -1.000000
v -2.000002 13.000000 -1.000000
v -0.000002 13.000000 -1.000000
v 1.999999 13.000000 -1.000000
v 3.999999 13.000000 -1.000000
v 5.999999 13.000000 -1.000000
v 7.999999 13.000000 -1.000000
v 9.999999 13.000000 -1.000000
v 11.999999 13.000000 -1.000000
v 15.999999 9.000000 -1.000000
v 15.999999 11.000000 -1.000000
v 13.999999 9.000000 1.000000
v 13.999999 11.000000 1.000000
v 15.999999 11.000000 1.000000
v 15.999999 9.000000 1.000000
v 13.999999 11.000000 -1.000000
v 13.999999 9.000000 -1.000000
v 17.999998 5.000000 -1.000000
v 19.999998 5.000000 -1.000000
v 19.999998 5.000000 1.000000
v 17.999998 5.000000 1.000000
v 17.999998 7.000000 -1.000000
v 19.999998 7.000000 -1.000000
v 19.999998 7.000000 1.000000
v 17.999998 7.000000 1.000000
vt -4.692478 -6.074590
vt -3.671874 -7.082530
vt -3.671874 -6.074590
vt -3.671893 -3.050747
vt -4.692548 -4.058700
vt -3.671916 -4.058700
vt -13.467016 6.978690
vt -12.453026 5.964704
vt -12.453026 6.978693
vt -11.962059 -2.055917
vt -12.987745 -1.057192
vt -12.987684 -2.055917
vt -13.597294 4.673463
vt -14.611279 3.659474
vt -13.597292 3.659476
vt -10.159327 -1.052082
vt -11.184906 -2.050808
vt -10.159264 -2.050808
vt -1.630641 -6.074590
vt -0.610004 -5.066653
vt -1.630626 -5.066653
vt -1.630626 -4.058700
vt -13.595667 -1.052086
vt -14.621271 -2.050810
vt -13.595627 -2.050810
vt 0.041498 0.940938
vt 1.067794 -0.057771
vt 1.067154 0.940942
vt 0.042160 -0.057771
vt 1.068437 -1.056484
vt -14.618294 5.969693
vt -13.604355 6.983680
vt -14.618341 6.983648
vt 1.069077 -2.055195
vt 0.042821 -1.056484
vt 0.043483 -2.055195
vt 14.401840 -2.055199
vt 15.427059 -1.056476
vt 14.401436 -1.056476
vt -13.604866 4.814425
vt -14.618860 5.828419
vt -14.618856 4.814421
vt -13.595835 0.945366
vt -14.621552 1.944102
vt -14.621487 0.945366
vt -13.603792 2.542715
vt -14.617781 3.556712
vt -14.617781 2.542719
vt -10.159346 0.945370
vt -11.184978 1.944102
vt -11.184990 0.945370
vt -11.288021 6.980925
vt -12.301989 5.966908
vt -11.288021 5.966918
vt -2.234114 -0.053851
vt -1.208470 0.944877
vt -2.234105 0.944877
vt 15.426666 -0.057752
vt 14.401035 -0.057752
vt 15.426281 0.940973
vt 14.400627 0.940971
vt 13.375402 -0.057754
vt 13.374977 0.940969
vt 13.375826 -1.056476
vt 14.400227 1.939694
vt 13.374554 1.939690
vt 14.399822 2.938419
vt 13.374142 2.938415
vt -6.902667 -1.051099
vt -7.928322 -2.049831
vt -6.902667 -2.049831
vt -11.165176 4.678648
vt -10.151182 3.664656
vt -10.151182 4.678648
vt -9.400068 -1.052078
vt -8.374414 -2.050810
vt -8.374424 -1.052078
vt -6.302071 -1.052076
vt -5.276428 -2.050810
vt -5.276437 -1.052076
vt -6.302133 -0.053344
vt -5.276491 -0.053344
vt -9.400068 -0.053344
vt -8.374424 -0.053344
vt -10.025015 6.973308
vt -9.011021 5.959312
vt -9.011024 6.973309
vt -11.157255 6.977767
vt -10.143267 5.963774
vt -10.143265 6.977765
vt -11.170391 2.542603
vt -10.156401 3.556593
vt -11.170391 3.556593
vt -2.234155 -1.052570
vt -1.208470 -0.053851
vt -1.208470 1.943619
vt -2.234134 1.943619
vt -2.234238 -2.051272
vt -1.208532 -1.052570
vt -3.671893 -5.066653
vt -4.692516 -5.066653
vt -2.651263 -3.050747
vt -2.651271 -4.058700
vt -2.651251 -7.082530
vt -2.651251 -6.074590
vt -1.630617 -7.082530
vt -1.630641 -3.050747
vt -2.651263 -5.066653
vt -0.610004 -3.050747
vt -0.609985 -4.058700
vt -0.609985 -7.082530
vt -0.610027 -6.074590
vt -11.184969 -0.053361
vt -11.184948 -1.052084
vt -10.159327 -0.053359
vt -11.320948 2.534608
vt -12.334936 3.548594
vt -12.334936 2.534608
vt -12.452070 3.661288
vt -13.466059 4.675276
vt -13.466059 3.661288
vt -14.621397 -0.053363
vt -14.621304 -1.052086
vt -13.595753 -0.053363
vt -11.295565 4.810242
vt -12.309553 5.824226
vt -12.309549 4.810237
vt -12.449717 4.815041
vt -13.463709 5.829030
vt -13.463705 4.815036
vt 1.066513 1.939653
vt 2.091558 2.938371
vt 1.065861 2.938367
vt 2.092177 1.939655
vt 3.117244 2.938375
vt 3.117842 1.939661
vt 4.142929 2.938378
vt 4.143517 1.939663
vt 5.168623 2.938382
vt 5.169192 1.939665
vt 6.194312 2.938386
vt 6.194856 1.939671
vt 7.220006 2.938392
vt 7.220532 1.939673
vt 8.245695 2.938394
vt 8.246208 1.939675
vt 9.271378 2.938399
vt 9.271873 1.939678
vt 10.297062 2.938403
vt 10.297537 1.939682
vt 11.322760 2.938407
vt 11.323208 1.939686
vt 12.348442 2.938411
vt 12.348885 1.939688
vt 2.092796 0.940942
vt 3.118452 0.940946
vt 4.144108 0.940948
vt 5.169762 0.940950
vt 6.195415 0.940954
vt 7.221059 0.940956
vt 8.246712 0.940958
vt 9.272369 0.940960
vt 10.298027 0.940961
vt 11.323673 0.940965
vt 12.349319 0.940965
vt 2.093429 -0.057771
vt 2.094046 -1.056482
vt 3.119062 -0.057769
vt 3.119662 -1.056482
vt 4.144696 -0.057767
vt 4.145285 -1.056480
vt 5.170327 -0.057765
vt 5.170896 -1.056480
vt 6.195964 -0.057763
vt 6.196509 -1.056480
vt 7.221596 -0.057763
vt 7.222135 -1.056480
vt 8.247229 -0.057761
vt 8.247748 -1.056478
vt 9.272863 -0.057759
vt 9.273359 -1.056478
vt 10.298498 -0.057759
vt 10.298975 -1.056478
vt 11.324131 -0.057757
vt 11.324589 -1.056478
vt 12.349766 -0.057756
vt 12.350208 -1.056476
vt -13.453833 3.554981
vt -12.439848 2.540998
vt -12.439848 3.554981
vt -12.322733 4.667840
vt -11.308746 3.653851
vt -11.308746 4.667840
vt -11.164862 5.799778
vt -10.150873 4.785798
vt -10.150877 5.799780
vt -10.035166 5.791954
vt -9.021175 4.777970
vt -9.021181 5.791956
vt -9.400080 1.944104
vt -8.374434 0.945383
vt -8.374445 1.944104
vt -9.400068 0.945383
vt -6.302298 1.944106
vt -5.276570 0.945385
vt -5.276654 1.944106
vt -6.302216 0.945385
vt -4.285453 -2.051272
vt -3.259788 -1.052570
vt -4.285401 -1.052570
vt -3.259842 -2.051272
vt -4.285413 0.944878
vt -3.259809 1.943619
vt -4.285453 1.943619
vt -3.259759 0.944877
vt -3.259748 -0.053851
vt -4.285392 -0.053851
vt -4.692506 -7.082530
vt -4.692529 -3.050747
vt -13.467016 5.964699
vt -11.962103 -1.057192
vt -14.611280 4.673460
vt -13.604324 5.969706
vt 15.427443 -2.055201
vt -13.604866 5.828419
vt -13.595898 1.944102
vt -13.603786 3.556708
vt -10.159327 1.944102
vt -12.302006 6.980890
vt -7.928303 -1.051099
vt -11.165176 3.664656
vt -9.400080 -2.050810
vt -6.302071 -2.050810
vt -10.025015 5.959312
vt -11.157255 5.963774
vt -10.156401 2.542603
vt -1.208624 -2.051274
vt -11.320948 3.548594
vt -12.452068 4.675276
vt -11.295565 5.824226
vt -12.449718 5.829030
vt -13.453835 2.540998
vt -12.322733 3.653855
vt -11.164862 4.785796
vt -10.035166 4.777966
vn 0.0000 1.0000 0.0000
vn 0.0000 0.0000 1.0000
vn -1.0000 0.0000 0.0000
vn 0.0000 -1.0000 0.0000
vn 1.0000 0.0000 0.0000
vn 0.0000 0.0000 -1.0000
usemtl Material
s off
f 5/1/1 42/2/1 44/3/1
f 42/4/2 8/5/2 43/6/2
f 7/7/3 6/8/3 8/9/3
f 2/10/4 11/11/4 9/12/4
f 1/13/5 4/14/5 2/15/5
f 12/16/6 2/17/6 9/18/6
f 50/19/6 9/20/6 51/21/6
f 9/20/4 49/22/4 51/21/4
f 3/23/2 11/24/2 4/25/2
f 17/26/6 13/27/6 18/28/6
f 15/29/1 14/30/1 13/27/1
f 19/31/3 15/32/3 17/33/3
f 20/34/2 16/35/2 19/36/2
f 25/37/2 22/38/2 26/39/2
f 53/40/5 20/41/5 60/42/5
f 60/43/2 19/44/2 58/45/2
f 58/46/3 17/47/3 56/48/3
f 56/49/6 18/50/6 53/51/6
f 24/52/5 22/53/5 23/54/5
f 118/55/4 38/56/4 119/57/4
f 26/39/1 21/58/1 28/59/1
f 28/59/6 24/60/6 27/61/6
f 73/62/6 27/61/6 108/63/6
f 61/64/1 28/59/1 73/62/1
f 108/63/4 25/65/4 96/66/4
f 96/66/2 26/67/2 61/68/2
f 32/69/4 30/70/4 31/71/4
f 35/72/3 31/73/3 36/74/3
f 34/75/6 32/76/6 35/77/6
f 36/78/2 30/79/2 33/80/2
f 111/81/2 33/80/2 114/82/2
f 109/83/6 35/77/6 116/84/6
f 116/85/3 36/86/3 111/87/3
f 114/88/5 34/89/5 109/90/5
f 39/91/5 37/92/5 40/93/5
f 122/94/6 37/95/6 118/55/6
f 119/57/2 39/96/2 123/97/2
f 123/98/1 40/99/1 122/94/1
f 41/100/4 8/5/4 6/101/4
f 5/1/6 41/100/6 6/101/6
f 48/102/2 43/6/2 45/103/2
f 44/3/1 48/104/1 46/105/1
f 46/105/1 52/106/1 50/19/1
f 52/107/2 45/103/2 49/22/2
f 47/108/4 43/6/4 41/100/4
f 44/3/6 47/108/6 41/100/6
f 10/109/2 49/22/2 11/110/2
f 50/19/1 10/111/1 12/112/1
f 51/21/4 45/103/4 47/108/4
f 46/105/6 51/21/6 47/108/6
f 12/16/6 54/113/6 1/114/6
f 55/115/6 53/51/6 54/113/6
f 10/116/3 55/117/3 12/118/3
f 57/119/3 56/120/3 55/121/3
f 3/23/2 57/122/2 10/123/2
f 59/124/2 58/45/2 57/122/2
f 1/125/5 59/126/5 3/127/5
f 54/128/5 60/129/5 59/130/5
f 20/131/2 72/132/2 14/133/2
f 85/134/2 71/135/2 72/132/2
f 86/136/2 70/137/2 71/135/2
f 87/138/2 69/139/2 70/137/2
f 88/140/2 68/141/2 69/139/2
f 89/142/2 67/143/2 68/141/2
f 90/144/2 66/145/2 67/143/2
f 91/146/2 65/147/2 66/145/2
f 92/148/2 64/149/2 65/147/2
f 93/150/2 63/151/2 64/149/2
f 94/152/2 62/153/2 63/151/2
f 95/154/2 61/68/2 62/153/2
f 18/28/4 85/134/4 20/131/4
f 97/155/4 86/136/4 85/134/4
f 98/156/4 87/138/4 86/136/4
f 99/157/4 88/140/4 87/138/4
f 100/158/4 89/142/4 88/140/4
f 101/159/4 90/144/4 89/142/4
f 102/160/4 91/146/4 90/144/4
f 103/161/4 92/148/4 91/146/4
f 104/162/4 93/150/4 92/148/4
f 105/163/4 94/152/4 93/150/4
f 106/164/4 95/154/4 94/152/4
f 107/165/4 96/66/4 95/154/4
f 14/30/1 84/166/1 13/27/1
f 72/167/1 83/168/1 84/166/1
f 71/169/1 82/170/1 83/168/1
f 70/171/1 81/172/1 82/170/1
f 69/173/1 80/174/1 81/172/1
f 68/175/1 79/176/1 80/174/1
f 67/177/1 78/178/1 79/176/1
f 66/179/1 77/180/1 78/178/1
f 65/181/1 76/182/1 77/180/1
f 64/183/1 75/184/1 76/182/1
f 63/185/1 74/186/1 75/184/1
f 62/187/1 73/62/1 74/186/1
f 13/27/6 97/155/6 18/28/6
f 84/166/6 98/156/6 97/155/6
f 83/168/6 99/157/6 98/156/6
f 82/170/6 100/158/6 99/157/6
f 81/172/6 101/159/6 100/158/6
f 80/174/6 102/160/6 101/159/6
f 79/176/6 103/161/6 102/160/6
f 78/178/6 104/162/6 103/161/6
f 77/180/6 105/163/6 104/162/6
f 76/182/6 106/164/6 105/163/6
f 75/184/6 107/165/6 106/164/6
f 74/186/6 108/63/6 107/165/6
f 23/188/5 110/189/5 24/190/5
f 113/191/5 109/192/5 110/193/5
f 27/194/3 112/195/3 25/196/3
f 115/197/3 111/198/3 112/199/3
f 24/200/6 115/201/6 27/202/6
f 110/203/6 116/84/6 115/201/6
f 25/204/2 113/205/2 23/206/2
f 112/207/2 114/82/2 113/205/2
f 33/208/1 121/209/1 34/210/1
f 124/211/1 122/94/1 121/209/1
f 30/212/2 124/213/2 33/214/2
f 120/215/2 123/97/2 124/213/2
f 34/210/6 117/216/6 29/217/6
f 121/209/6 118/55/6 117/216/6
f 29/217/4 120/215/4 30/212/4
f 117/216/4 119/57/4 120/215/4
f 5/1/1 7/218/1 42/2/1
f 42/4/2 7/219/2 8/5/2
f 7/7/3 5/220/3 6/8/3
f 2/10/4 4/221/4 11/11/4
f 1/13/5 3/222/5 4/14/5
f 12/16/6 1/114/6 2/17/6
f 50/19/6 12/112/6 9/20/6
f 9/20/4 11/110/4 49/22/4
f 3/23/2 10/123/2 11/24/2
f 17/26/6 15/29/6 13/27/6
f 15/29/1 16/35/1 14/30/1
f 19/31/3 16/223/3 15/32/3
f 20/34/2 14/30/2 16/35/2
f 25/37/2 23/224/2 22/38/2
f 53/40/5 18/225/5 20/41/5
f 60/43/2 20/226/2 19/44/2
f 58/46/3 19/227/3 17/47/3
f 56/49/6 17/228/6 18/50/6
f 24/52/5 21/229/5 22/53/5
f 118/55/4 37/95/4 38/56/4
f 26/39/1 22/38/1 21/58/1
f 28/59/6 21/58/6 24/60/6
f 73/62/6 28/59/6 27/61/6
f 61/64/1 26/39/1 28/59/1
f 108/63/4 27/61/4 25/65/4
f 96/66/2 25/65/2 26/67/2
f 32/69/4 29/230/4 30/70/4
f 35/72/3 32/231/3 31/73/3
f 34/75/6 29/232/6 32/76/6
f 36/78/2 31/233/2 30/79/2
f 111/81/2 36/78/2 33/80/2
f 109/83/6 34/75/6 35/77/6
f 116/85/3 35/234/3 36/86/3
f 114/88/5 33/235/5 34/89/5
f 39/91/5 38/236/5 37/92/5
f 122/94/6 40/99/6 37/95/6
f 119/57/2 38/56/2 39/96/2
f 123/98/1 39/237/1 40/99/1
f 41/100/4 43/6/4 8/5/4
f 5/1/6 44/3/6 41/100/6
f 48/102/2 42/4/2 43/6/2
f 44/3/1 42/2/1 48/104/1
f 46/105/1 48/104/1 52/106/1
f 52/107/2 48/102/2 45/103/2
f 47/108/4 45/103/4 43/6/4
f 44/3/6 46/105/6 47/108/6
f 10/109/2 52/107/2 49/22/2
f 50/19/1 52/106/1 10/111/1
f 51/21/4 49/22/4 45/103/4
f 46/105/6 50/19/6 51/21/6
f 12/16/6 55/115/6 54/113/6
f 55/115/6 56/49/6 53/51/6
f 10/116/3 57/238/3 55/117/3
f 57/119/3 58/239/3 56/120/3
f 3/23/2 59/124/2 57/122/2
f 59/124/2 60/43/2 58/45/2
f 1/125/5 54/240/5 59/126/5
f 54/128/5 53/241/5 60/129/5
f 20/131/2 85/134/2 72/132/2
f 85/134/2 86/136/2 71/135/2
f 86/136/2 87/138/2 70/137/2
f 87/138/2 88/140/2 69/139/2
f 88/140/2 89/142/2 68/141/2
f 89/142/2 90/144/2 67/143/2
f 90/144/2 91/146/2 66/145/2
f 91/146/2 92/148/2 65/147/2
f 92/148/2 93/150/2 64/149/2
f 93/150/2 94/152/2 63/151/2
f 94/152/2 95/154/2 62/153/2
f 95/154/2 96/66/2 61/68/2
f 18/28/4 97/155/4 85/134/4
f 97/155/4 98/156/4 86/136/4
f 98/156/4 99/157/4 87/138/4
f 99/157/4 100/158/4 88/140/4
f 100/158/4 101/159/4 89/142/4
f 101/159/4 102/160/4 90/144/4
f 102/160/4 103/161/4 91/146/4
f 103/161/4 104/162/4 92/148/4
f 104/162/4 105/163/4 93/150/4
f 105/163/4 106/164/4 94/152/4
f 106/164/4 107/165/4 95/154/4
f 107/165/4 108/63/4 96/66/4
f 14/30/1 72/167/1 84/166/1
f 72/167/1 71/169/1 83/168/1
f 71/169/1 70/171/1 82/170/1
f 70/171/1 69/173/1 81/172/1
f 69/173/1 68/175/1 80/174/1
f 68/175/1 67/177/1 79/176/1
f 67/177/1 66/179/1 78/178/1
f 66/179/1 65/181/1 77/180/1
f 65/181/1 64/183/1 76/182/1
f 64/183/1 63/185/1 75/184/1
f 63/185/1 62/187/1 74/186/1
f 62/187/1 61/64/1 73/62/1
f 13/27/6 84/166/6 97/155/6
f 84/166/6 83/168/6 98/156/6
f 83/168/6 82/170/6 99/157/6
f 82/170/6 81/172/6 100/158/6
f 81/172/6 80/174/6 101/159/6
f 80/174/6 79/176/6 102/160/6
f 79/176/6 78/178/6 103/161/6
f 78/178/6 77/180/6 104/162/6
f 77/180/6 76/182/6 105/163/6
f 76/182/6 75/184/6 106/164/6
f 75/184/6 74/186/6 107/165/6
f 74/186/6 73/62/6 108/63/6
f 23/188/5 113/242/5 110/189/5
f 113/191/5 114/243/5 109/192/5
f 27/194/3 115/244/3 112/195/3
f 115/197/3 116/245/3 111/198/3
f 24/200/6 110/203/6 115/201/6
f 110/203/6 109/83/6 116/84/6
f 25/204/2 112/207/2 113/205/2
f 112/207/2 111/81/2 114/82/2
f 33/208/1 124/211/1 121/209/1
f 124/211/1 123/98/1 122/94/1
f 30/212/2 120/215/2 124/213/2
f 120/215/2 119/57/2 123/97/2
f 34/210/6 121/209/6 117/216/6
f 121/209/6 122/94/6 118/55/6
f 29/217/4 117/216/4 120/215/4
f 117/216/4 118/55/4 119/57/4
