# Blender v3.1.2 OBJ File: 'ExamMap.blend'
# www.blender.org
mtllib LevelFloor.mtl
o LevelFloor_Cube.012
v 22.000002 1.000000 -1.000000
v 22.000002 -1.000000 -1.000000
v 22.000002 1.000000 1.000000
v 22.000002 -1.000000 1.000000
v -22.000002 1.000000 -1.000000
v -22.000002 -1.000000 -1.000000
v -22.000002 1.000000 1.000000
v -22.000002 -1.000000 1.000000
v 20.000002 -1.000000 -1.000000
v 18.000002 -1.000000 -1.000000
v 16.000002 -1.000000 -1.000000
v 14.000002 -1.000000 -1.000000
v 12.000002 -1.000000 -1.000000
v 10.000002 -1.000000 -1.000000
v 8.000002 -1.000000 -1.000000
v 6.000001 -1.000000 -1.000000
v 4.000001 -1.000000 -1.000000
v 2.000001 -1.000000 -1.000000
v 0.000001 -1.000000 -1.000000
v -2.000000 -1.000000 -1.000000
v -4.000000 -1.000000 -1.000000
v -6.000000 -1.000000 -1.000000
v -8.000000 -1.000000 -1.000000
v -10.000000 -1.000000 -1.000000
v -12.000001 -1.000000 -1.000000
v -14.000000 -1.000000 -1.000000
v -16.000000 -1.000000 -1.000000
v -18.000000 -1.000000 -1.000000
v -20.000002 -1.000000 -1.000000
v 20.000002 1.000000 1.000000
v 18.000002 1.000000 1.000000
v 16.000002 1.000000 1.000000
v 14.000002 1.000000 1.000000
v 12.000002 1.000000 1.000000
v 10.000002 1.000000 1.000000
v 8.000002 1.000000 1.000000
v 6.000001 1.000000 1.000000
v 4.000001 1.000000 1.000000
v 2.000001 1.000000 1.000000
v 0.000001 1.000000 1.000000
v -2.000000 1.000000 1.000000
v -4.000000 1.000000 1.000000
v -6.000000 1.000000 1.000000
v -8.000000 1.000000 1.000000
v -10.000000 1.000000 1.000000
v -12.000001 1.000000 1.000000
v -14.000000 1.000000 1.000000
v -16.000000 1.000000 1.000000
v -18.000000 1.000000 1.000000
v -20.000002 1.000000 1.000000
v -20.000002 -1.000000 1.000000
v -18.000002 -1.000000 1.000000
v -16.000002 -1.000000 1.000000
v -14.000002 -1.000000 1.000000
v -12.000002 -1.000000 1.000000
v -10.000002 -1.000000 1.000000
v -8.000002 -1.000000 1.000000
v -6.000001 -1.000000 1.000000
v -4.000001 -1.000000 1.000000
v -2.000001 -1.000000 1.000000
v -0.000001 -1.000000 1.000000
v 2.000000 -1.000000 1.000000
v 4.000000 -1.000000 1.000000
v 6.000000 -1.000000 1.000000
v 8.000000 -1.000000 1.000000
v 10.000000 -1.000000 1.000000
v 12.000001 -1.000000 1.000000
v 14.000000 -1.000000 1.000000
v 16.000000 -1.000000 1.000000
v 18.000000 -1.000000 1.000000
v 20.000002 -1.000000 1.000000
v -20.000002 1.000000 -1.000000
v -18.000002 1.000000 -1.000000
v -16.000002 1.000000 -1.000000
v -14.000002 1.000000 -1.000000
v -12.000002 1.000000 -1.000000
v -10.000002 1.000000 -1.000000
v -8.000002 1.000000 -1.000000
v -6.000001 1.000000 -1.000000
v -4.000001 1.000000 -1.000000
v -2.000001 1.000000 -1.000000
v -0.000001 1.000000 -1.000000
v 2.000000 1.000000 -1.000000
v 4.000000 1.000000 -1.000000
v 6.000000 1.000000 -1.000000
v 8.000000 1.000000 -1.000000
v 10.000000 1.000000 -1.000000
v 12.000001 1.000000 -1.000000
v 14.000000 1.000000 -1.000000
v 16.000000 1.000000 -1.000000
v 18.000000 1.000000 -1.000000
v 20.000002 1.000000 -1.000000
vt -9.457981 0.975130
vt -8.507328 0.005958
vt -8.507244 0.975130
vt -9.458160 -0.963216
vt -8.507416 -0.963216
vt -10.408909 -0.963216
vt -9.458250 -1.932388
vt 11.458260 -1.932384
vt 10.507498 -0.963216
vt 10.507509 -1.932384
vt 12.409010 -1.932382
vt 11.458246 -0.963216
vt 10.507483 0.975120
vt 11.458204 1.944288
vt 10.507473 1.944288
vt -8.507158 1.944304
vt -9.457888 1.944304
vt -7.556427 1.944302
vt -7.556509 0.975131
vt -6.605695 1.944302
vt -6.605773 0.975129
vt -5.654964 1.944302
vt -5.655035 0.975129
vt -4.704231 1.944298
vt -4.704298 0.975129
vt -3.753501 1.944298
vt -3.753562 0.975129
vt -2.802769 1.944298
vt -2.802827 0.975129
vt -1.852038 1.944296
vt -1.852090 0.975127
vt -0.901306 1.944296
vt -0.901354 0.975127
vt 0.049425 1.944296
vt 0.049382 0.975127
vt 1.000156 1.944294
vt 1.000118 0.975127
vt 1.950888 1.944294
vt 1.950854 0.975123
vt 2.901619 1.944294
vt 2.901591 0.975123
vt 3.852351 1.944292
vt 3.852327 0.975123
vt 4.803082 1.944293
vt 4.803063 0.975123
vt 5.753814 1.944293
vt 5.753799 0.975123
vt 6.704545 1.944291
vt 6.704535 0.975121
vt 7.655277 1.944290
vt 7.655272 0.975121
vt 8.606009 1.944290
vt 8.606009 0.975121
vt 9.556740 1.944288
vt 9.556744 0.975121
vt -8.507502 -1.932387
vt -7.556750 -1.932387
vt -6.606001 -1.932387
vt -7.556667 -0.963216
vt -5.655250 -1.932387
vt -6.605923 -0.963216
vt -4.704499 -1.932386
vt -5.655177 -0.963216
vt -3.753749 -1.932386
vt -4.704432 -0.963216
vt -2.802999 -1.932386
vt -3.753684 -0.963216
vt -1.852248 -1.932386
vt -2.802940 -0.963216
vt -0.901497 -1.932386
vt -1.852195 -0.963216
vt 0.049253 -1.932385
vt -0.901449 -0.963216
vt 1.000004 -1.932385
vt 0.049296 -0.963216
vt 1.950755 -1.932385
vt 1.000042 -0.963216
vt 2.901505 -1.932385
vt 1.950788 -0.963216
vt 3.852256 -1.932384
vt 2.901533 -0.963216
vt 4.803008 -1.932384
vt 3.852279 -0.963216
vt 5.753757 -1.932384
vt 4.803025 -0.963216
vt 6.704507 -1.932384
vt 5.753771 -0.963216
vt 7.655257 -1.932384
vt 6.704517 -0.963216
vt 8.606009 -1.932384
vt 7.655262 -0.963216
vt 9.556759 -1.932384
vt 8.606009 -0.963216
vt 9.556755 -0.963216
vt 11.458233 0.005954
vt 10.507490 0.005954
vt 9.556749 0.005954
vt 8.606009 0.005953
vt 7.655268 0.005953
vt 6.704526 0.005953
vt 5.753785 0.005954
vt 4.803044 0.005954
vt 3.852303 0.005955
vt 2.901562 0.005955
vt 1.950822 0.005955
vt 1.000080 0.005955
vt 0.049339 0.005955
vt -0.901401 0.005955
vt -1.852143 0.005955
vt -2.802884 0.005955
vt -3.753626 0.005956
vt -4.704366 0.005957
vt -5.655107 0.005957
vt -6.605846 0.005957
vt -7.556588 0.005958
vt 11.458218 0.975120
vt -9.458069 0.005958
vt -10.409002 -1.932388
vt 12.408991 -0.963216
vn 0.0000 1.0000 0.0000
vn 0.0000 0.0000 1.0000
vn -1.0000 0.0000 0.0000
vn 0.0000 -1.0000 0.0000
vn 1.0000 0.0000 0.0000
vn 0.0000 0.0000 -1.0000
usemtl Material
s off
f 5/1/1 50/2/1 72/3/1
f 50/2/2 8/4/2 51/5/2
f 7/6/3 6/7/3 8/4/3
f 2/8/4 71/9/4 9/10/4
f 1/11/5 4/12/5 2/8/5
f 92/13/6 2/14/6 9/15/6
f 5/1/6 29/16/6 6/17/6
f 72/3/6 28/18/6 29/16/6
f 73/19/6 27/20/6 28/18/6
f 74/21/6 26/22/6 27/20/6
f 75/23/6 25/24/6 26/22/6
f 76/25/6 24/26/6 25/24/6
f 77/27/6 23/28/6 24/26/6
f 78/29/6 22/30/6 23/28/6
f 79/31/6 21/32/6 22/30/6
f 80/33/6 20/34/6 21/32/6
f 81/35/6 19/36/6 20/34/6
f 82/37/6 18/38/6 19/36/6
f 83/39/6 17/40/6 18/38/6
f 84/41/6 16/42/6 17/40/6
f 85/43/6 15/44/6 16/42/6
f 86/45/6 14/46/6 15/44/6
f 87/47/6 13/48/6 14/46/6
f 88/49/6 12/50/6 13/48/6
f 89/51/6 11/52/6 12/50/6
f 90/53/6 10/54/6 11/52/6
f 91/55/6 9/15/6 10/54/6
f 29/56/4 8/4/4 6/7/4
f 28/57/4 51/5/4 29/56/4
f 27/58/4 52/59/4 28/57/4
f 26/60/4 53/61/4 27/58/4
f 25/62/4 54/63/4 26/60/4
f 24/64/4 55/65/4 25/62/4
f 23/66/4 56/67/4 24/64/4
f 22/68/4 57/69/4 23/66/4
f 21/70/4 58/71/4 22/68/4
f 20/72/4 59/73/4 21/70/4
f 19/74/4 60/75/4 20/72/4
f 18/76/4 61/77/4 19/74/4
f 17/78/4 62/79/4 18/76/4
f 16/80/4 63/81/4 17/78/4
f 15/82/4 64/83/4 16/80/4
f 14/84/4 65/85/4 15/82/4
f 13/86/4 66/87/4 14/84/4
f 12/88/4 67/89/4 13/86/4
f 11/90/4 68/91/4 12/88/4
f 10/92/4 69/93/4 11/90/4
f 9/10/4 70/94/4 10/92/4
f 3/95/2 71/9/2 4/12/2
f 30/96/2 70/94/2 71/9/2
f 31/97/2 69/93/2 70/94/2
f 32/98/2 68/91/2 69/93/2
f 33/99/2 67/89/2 68/91/2
f 34/100/2 66/87/2 67/89/2
f 35/101/2 65/85/2 66/87/2
f 36/102/2 64/83/2 65/85/2
f 37/103/2 63/81/2 64/83/2
f 38/104/2 62/79/2 63/81/2
f 39/105/2 61/77/2 62/79/2
f 40/106/2 60/75/2 61/77/2
f 41/107/2 59/73/2 60/75/2
f 42/108/2 58/71/2 59/73/2
f 43/109/2 57/69/2 58/71/2
f 44/110/2 56/67/2 57/69/2
f 45/111/2 55/65/2 56/67/2
f 46/112/2 54/63/2 55/65/2
f 47/113/2 53/61/2 54/63/2
f 48/114/2 52/59/2 53/61/2
f 49/115/2 51/5/2 52/59/2
f 92/13/1 3/95/1 1/116/1
f 91/55/1 30/96/1 92/13/1
f 90/53/1 31/97/1 91/55/1
f 89/51/1 32/98/1 90/53/1
f 88/49/1 33/99/1 89/51/1
f 87/47/1 34/100/1 88/49/1
f 86/45/1 35/101/1 87/47/1
f 85/43/1 36/102/1 86/45/1
f 84/41/1 37/103/1 85/43/1
f 83/39/1 38/104/1 84/41/1
f 82/37/1 39/105/1 83/39/1
f 81/35/1 40/106/1 82/37/1
f 80/33/1 41/107/1 81/35/1
f 79/31/1 42/108/1 80/33/1
f 78/29/1 43/109/1 79/31/1
f 77/27/1 44/110/1 78/29/1
f 76/25/1 45/111/1 77/27/1
f 75/23/1 46/112/1 76/25/1
f 74/21/1 47/113/1 75/23/1
f 73/19/1 48/114/1 74/21/1
f 72/3/1 49/115/1 73/19/1
f 5/1/1 7/117/1 50/2/1
f 50/2/2 7/117/2 8/4/2
f 7/6/3 5/118/3 6/7/3
f 2/8/4 4/12/4 71/9/4
f 1/11/5 3/119/5 4/12/5
f 92/13/6 1/116/6 2/14/6
f 5/1/6 72/3/6 29/16/6
f 72/3/6 73/19/6 28/18/6
f 73/19/6 74/21/6 27/20/6
f 74/21/6 75/23/6 26/22/6
f 75/23/6 76/25/6 25/24/6
f 76/25/6 77/27/6 24/26/6
f 77/27/6 78/29/6 23/28/6
f 78/29/6 79/31/6 22/30/6
f 79/31/6 80/33/6 21/32/6
f 80/33/6 81/35/6 20/34/6
f 81/35/6 82/37/6 19/36/6
f 82/37/6 83/39/6 18/38/6
f 83/39/6 84/41/6 17/40/6
f 84/41/6 85/43/6 16/42/6
f 85/43/6 86/45/6 15/44/6
f 86/45/6 87/47/6 14/46/6
f 87/47/6 88/49/6 13/48/6
f 88/49/6 89/51/6 12/50/6
f 89/51/6 90/53/6 11/52/6
f 90/53/6 91/55/6 10/54/6
f 91/55/6 92/13/6 9/15/6
f 29/56/4 51/5/4 8/4/4
f 28/57/4 52/59/4 51/5/4
f 27/58/4 53/61/4 52/59/4
f 26/60/4 54/63/4 53/61/4
f 25/62/4 55/65/4 54/63/4
f 24/64/4 56/67/4 55/65/4
f 23/66/4 57/69/4 56/67/4
f 22/68/4 58/71/4 57/69/4
f 21/70/4 59/73/4 58/71/4
f 20/72/4 60/75/4 59/73/4
f 19/74/4 61/77/4 60/75/4
f 18/76/4 62/79/4 61/77/4
f 17/78/4 63/81/4 62/79/4
f 16/80/4 64/83/4 63/81/4
f 15/82/4 65/85/4 64/83/4
f 14/84/4 66/87/4 65/85/4
f 13/86/4 67/89/4 66/87/4
f 12/88/4 68/91/4 67/89/4
f 11/90/4 69/93/4 68/91/4
f 10/92/4 70/94/4 69/93/4
f 9/10/4 71/9/4 70/94/4
f 3/95/2 30/96/2 71/9/2
f 30/96/2 31/97/2 70/94/2
f 31/97/2 32/98/2 69/93/2
f 32/98/2 33/99/2 68/91/2
f 33/99/2 34/100/2 67/89/2
f 34/100/2 35/101/2 66/87/2
f 35/101/2 36/102/2 65/85/2
f 36/102/2 37/103/2 64/83/2
f 37/103/2 38/104/2 63/81/2
f 38/104/2 39/105/2 62/79/2
f 39/105/2 40/106/2 61/77/2
f 40/106/2 41/107/2 60/75/2
f 41/107/2 42/108/2 59/73/2
f 42/108/2 43/109/2 58/71/2
f 43/109/2 44/110/2 57/69/2
f 44/110/2 45/111/2 56/67/2
f 45/111/2 46/112/2 55/65/2
f 46/112/2 47/113/2 54/63/2
f 47/113/2 48/114/2 53/61/2
f 48/114/2 49/115/2 52/59/2
f 49/115/2 50/2/2 51/5/2
f 92/13/1 30/96/1 3/95/1
f 91/55/1 31/97/1 30/96/1
f 90/53/1 32/98/1 31/97/1
f 89/51/1 33/99/1 32/98/1
f 88/49/1 34/100/1 33/99/1
f 87/47/1 35/101/1 34/100/1
f 86/45/1 36/102/1 35/101/1
f 85/43/1 37/103/1 36/102/1
f 84/41/1 38/104/1 37/103/1
f 83/39/1 39/105/1 38/104/1
f 82/37/1 40/106/1 39/105/1
f 81/35/1 41/107/1 40/106/1
f 80/33/1 42/108/1 41/107/1
f 79/31/1 43/109/1 42/108/1
f 78/29/1 44/110/1 43/109/1
f 77/27/1 45/111/1 44/110/1
f 76/25/1 46/112/1 45/111/1
f 75/23/1 47/113/1 46/112/1
f 74/21/1 48/114/1 47/113/1
f 73/19/1 49/115/1 48/114/1
f 72/3/1 50/2/1 49/115/1
